# Blender v2.80 (sub 75) OBJ File: 'TestBlock.blend'
# www.blender.org
mtllib testblock.mtl
o Cube
v 1.000000 0.000000 -1.000000
v 1.000000 0.000000 1.000000
v -1.000000 0.000000 -1.000000
v -1.000000 0.000000 1.000000
v 0.500000 0.800000 -0.500000
v 1.000000 0.500000 -1.000000
v 0.500000 0.800000 0.500000
v 1.000000 0.500000 1.000000
v -0.500000 0.800000 -0.500000
v -1.000000 0.500000 -1.000000
v -0.500000 0.800000 0.500000
v -1.000000 0.500000 1.000000
v 0.400000 1.000000 -0.400000
v 0.400000 1.000000 0.400000
v -0.400000 1.000000 -0.400000
v -0.400000 1.000000 0.400000
vt 0.500000 0.500000
vt 0.622621 0.500000
vt 0.622621 0.750000
vt 0.500000 0.750000
vt 0.375000 0.500000
vt 0.497621 0.500000
vt 0.497621 0.750000
vt 0.375000 0.750000
vt 0.625000 0.750000
vt 0.625000 1.000000
vt 0.375000 1.000000
vt 0.310891 0.814109
vt 0.310891 0.935891
vt 0.310891 0.935891
vt 0.310891 0.814109
vt 0.250000 0.500000
vt 0.372621 0.500000
vt 0.372621 0.750000
vt 0.250000 0.750000
vt 0.189109 0.935891
vt 0.375000 1.000000
vt 0.125000 1.000000
vt 0.189109 0.814109
vt 0.125000 0.750000
vt 0.375000 0.750000
vt 0.625000 0.500000
vt 0.747621 0.500000
vt 0.747621 0.750000
vt 0.189109 0.814109
vt 0.189109 0.935891
vn 0.0000 0.0000 1.0000
vn -1.0000 0.0000 0.0000
vn 0.0000 -1.0000 0.0000
vn -0.8944 0.4472 0.0000
vn 1.0000 0.0000 0.0000
vn 0.0000 0.8575 0.5145
vn 0.5145 0.8575 0.0000
vn -0.5145 0.8575 0.0000
vn 0.0000 0.8575 -0.5145
vn 0.0000 0.0000 -1.0000
vn 0.0000 1.0000 0.0000
vn 0.8944 0.4472 0.0000
vn 0.0000 0.4472 0.8944
vn 0.0000 0.4472 -0.8944
usemtl (null)
s off
f 2/1/1 8/2/1 12/3/1 4/4/1
f 4/5/2 12/6/2 10/7/2 3/8/2
f 3/8/3 1/9/3 2/10/3 4/11/3
f 9/12/4 11/13/4 16/14/4 15/15/4
f 1/16/5 6/17/5 8/18/5 2/19/5
f 7/20/6 11/13/6 12/21/6 8/22/6
f 5/23/7 7/20/7 8/22/7 6/24/7
f 11/13/8 9/12/8 10/25/8 12/21/8
f 9/12/9 5/23/9 6/24/9 10/25/9
f 3/26/10 10/27/10 6/28/10 1/9/10
f 13/29/11 15/15/11 16/14/11 14/30/11
f 7/20/12 5/23/12 13/29/12 14/30/12
f 11/13/13 7/20/13 14/30/13 16/14/13
f 5/23/14 9/12/14 15/15/14 13/29/14
